<?xml version="1.0" encoding="utf-8"?>
<!-- Generator: Adobe Illustrator 23.0.1, SVG Export Plug-In . SVG Version: 6.00 Build 0)  -->
<svg version="1.1" id="Layer_1" xmlns="http://www.w3.org/2000/svg" xmlns:xlink="http://www.w3.org/1999/xlink" x="0px" y="0px"
	 viewBox="0 0 305.3 265.6" style="enable-background:new 0 0 305.3 265.6;" xml:space="preserve">
<style type="text/css">
	.st0{fill-rule:evenodd;clip-rule:evenodd;fill:#FFFFFF;}
	.st1{fill:#FFFFFF;}
</style>
<g>
	<path class="st0" d="M217.9,155.1c1.2,0.5,2.3,1.1,3.5,1.5c14.2,4.8,26,12.9,33.6,26.1c6.1,10.6,8.9,22.1,8.5,34.3
		c-0.1,2.6-0.2,5.1-0.4,7.6c-0.3,3.4-1.4,4.3-5,4.3c-6.3,0-12.7-0.1-19-0.1c-9.9,0-19.7,0.2-29.6,0.2c-2.9,0-5.9-0.2-8.8-0.3
		c-2.5,0-3.7-1.1-3.5-3.7c0.4-6.9,0.9-13.8,1-20.7c0.1-6.6,0-13.3-0.6-19.9c-0.8-7.7-6.7-12.5-14.7-12.5c-20.7-0.1-41.3-0.2-62-0.3
		c-3.3,0-6.6-0.2-9.9-0.2c-3.4,0-3.9,0.5-4.1,4c-0.1,2.3-0.1,4.5-0.1,6.8c0.1,13.5,0.3,27.6,0.5,41.2c0.1,5.2-0.2,5.5-5.4,5.5
		c-19.6-0.1-39.2-0.3-58.8-0.5c-3.6,0-4.1-0.5-4.1-4.2c-0.1-34.1-0.2-68.8-0.3-102.9c0-12.8,0.2-25.6,0.1-38.4
		c0-2.6,0.7-3.8,3.5-3.8c19.6,0.1,39.2,0,58.8,0.1c5.8,0,5.9,0.1,5.9,6c0,15.7,0,31.4,0.1,47.2c0,4.5,0.2,4.4,4.7,4.5
		c20.3,0.1,40.6,0.3,60.8,0.4c4.8,0,9.7,0.2,14.4-0.6c6.8-1.1,11.1-5.7,11.8-12.5c1-9.8,1.3-19.6,1.8-29.5c0.2-4,0-7.9-0.1-11.9
		c-0.1-2.3,0.9-3.2,3.2-3.1c19.9,0.3,39.8,0.5,59.7,0.7c1.9,0,2.8,0.8,2.9,2.7c1.1,20-3.7,38.3-17.5,53.3
		c-7.5,8.2-17.1,13.4-27.7,16.7c-1.1,0.3-2.2,0.9-3.2,1.3C217.9,154.7,217.9,154.9,217.9,155.1z"/>
	<path class="st0" d="M152.7,36.8c19.8,0.1,39.6,0.3,59.4,0.4c17,0.1,33.9,0.4,50.9,0.4c2.7,0,3.8,0.8,3.7,3.6
		c-0.2,8.5-0.2,17-0.3,25.6c-0.1,3.4-0.5,3.8-3.8,3.7c-23.4-0.2-46.8-0.4-70.2-0.6c-5.9-0.1-5.9-0.1-5.9,5.8
		c-0.1,11.3-0.1,22.5-0.2,33.8c0,5.3-0.1,10.6-0.2,15.9c-0.1,3.5-0.5,3.9-4,3.9c-20.5-0.1-40.9-0.3-61.4-0.3c-3.3,0-3.4-1.9-3.4-4.3
		c0.1-13.9,0.3-27.8,0.4-41.8c0-3,0-6.1,0-9.1c0-4.1,0-4.2-4-4.2c-10.7-0.1-21.4-0.1-32.1-0.1c-13.2,0-26.3,0-39.5,0.1
		c-2.4,0-3.4-0.9-3.4-3.3c0.1-8.5,0.1-17.1,0-25.6c0-2.8,0.8-3.9,3.7-3.9c26.2,0,52.5-0.1,78.7-0.3C131.7,36.5,142.2,37,152.7,36.8
		C152.7,37.1,152.7,36.6,152.7,36.8z"/>
	<path class="st0" d="M131.1,182.4c16.7,0.2,33.3,0.3,50,0.5c3.9,0,4.2,0.4,4.2,4.3c-0.1,12.1-0.1,24.2-0.2,36.4
		c0,4.1-0.6,5-4.6,5.1c-11.8,0.2-23.7,0.1-35.5,0.2c-7.9,0-15.7-0.1-23.6-0.1c-4.6,0-5-0.6-4.8-5.3c0.2-5.4,0.1-10.8,0.1-16.2
		c0.1-6.8,0.1-13.6,0.2-20.4c0.1-3.5,0.8-4.1,4.3-4.1C124.5,182.4,127.8,182.4,131.1,182.4C131.1,182.4,131.1,182.4,131.1,182.4z"/>
</g>
<path class="st1" d="M256,19.9c8.4,0,16.1,2.7,21.8,7.7c2.8,2.5,7.6,7.7,7.6,15.3v179.8c0,7.6-4.8,12.9-7.6,15.3
	c-5.7,5-13.4,7.7-21.8,7.7H49.3c-8.4,0-16.1-2.7-21.8-7.7c-2.8-2.5-7.6-7.7-7.6-15.3V42.9c0-7.6,4.8-12.9,7.6-15.3
	c5.7-5,13.4-7.7,21.8-7.7L256,19.9 M256,0H49.3C22.1,0,0,19.2,0,42.9v179.8c0,23.7,22.1,42.9,49.3,42.9H256
	c27.2,0,49.3-19.2,49.3-42.9V42.9C305.3,19.2,283.2,0,256,0L256,0z"/>
</svg>
