<?xml version="1.0" encoding="utf-8"?>
<!-- Generator: Adobe Illustrator 16.0.0, SVG Export Plug-In . SVG Version: 6.00 Build 0)  -->
<!DOCTYPE svg PUBLIC "-//W3C//DTD SVG 1.1//EN" "http://www.w3.org/Graphics/SVG/1.1/DTD/svg11.dtd">
<svg version="1.1" id="Layer_1" xmlns="http://www.w3.org/2000/svg" xmlns:xlink="http://www.w3.org/1999/xlink" x="0px" y="0px"
	 width="305.321px" height="265.616px" viewBox="0 0 305.321 265.616" enable-background="new 0 0 305.321 265.616"
	 xml:space="preserve">
<g>
	<path fill-rule="evenodd" clip-rule="evenodd" fill="#BF1111" d="M217.875,155.144c1.159,0.49,2.292,1.057,3.48,1.461
		c14.18,4.846,25.958,12.879,33.562,26.07c6.09,10.563,8.86,22.086,8.534,34.305c-0.067,2.553-0.216,5.102-0.408,7.646
		c-0.254,3.371-1.411,4.332-4.979,4.313c-6.339-0.037-12.679-0.107-19.017-0.088c-9.855,0.031-19.71,0.156-29.565,0.18
		c-2.933,0.008-5.865-0.246-8.798-0.266c-2.5-0.018-3.661-1.113-3.521-3.652c0.379-6.898,0.916-13.797,1.002-20.699
		c0.084-6.617,0.045-13.279-0.604-19.855c-0.758-7.686-6.736-12.463-14.708-12.506c-20.655-0.111-41.311-0.191-61.966-0.305
		c-3.314-0.018-6.627-0.225-9.941-0.207c-3.423,0.02-3.879,0.482-4.068,3.969c-0.122,2.27-0.094,4.549-0.07,6.822
		c0.143,13.549,0.316,27.637,0.455,41.188c0.054,5.219-0.194,5.545-5.398,5.51c-19.607-0.137-39.214-0.33-58.821-0.549
		c-3.623-0.039-4.066-0.525-4.079-4.199c-0.12-34.107-0.243-68.756-0.309-102.864c-0.025-12.791,0.153-25.582,0.11-38.372
		c-0.009-2.626,0.737-3.78,3.53-3.77c19.615,0.075,39.23,0.029,58.845,0.062c5.804,0.009,5.863,0.067,5.879,5.958
		c0.042,15.724,0.002,31.449,0.056,47.173c0.016,4.524,0.215,4.444,4.718,4.46c20.276,0.074,40.551,0.295,60.827,0.377
		c4.815,0.02,9.713,0.197,14.431-0.572c6.819-1.113,11.085-5.705,11.784-12.488c1.007-9.778,1.325-19.631,1.784-29.459
		c0.187-3.965,0.011-7.949-0.08-11.922c-0.053-2.294,0.913-3.181,3.235-3.149c19.896,0.274,39.792,0.486,59.69,0.684
		c1.888,0.019,2.752,0.833,2.854,2.708c1.102,20.047-3.739,38.265-17.513,53.278c-7.482,8.156-17.074,13.406-27.684,16.689
		c-1.108,0.344-2.154,0.891-3.229,1.344C217.887,154.66,217.881,154.902,217.875,155.144z"/>
	<path fill-rule="evenodd" clip-rule="evenodd" fill="#171717" d="M152.71,36.832c19.8,0.14,39.602,0.265,59.401,0.424
		c16.957,0.138,33.914,0.356,50.87,0.435c2.653,0.013,3.754,0.814,3.684,3.605c-0.213,8.522-0.199,17.05-0.334,25.574
		c-0.054,3.396-0.49,3.776-3.808,3.747c-23.4-0.207-46.802-0.417-70.202-0.641c-5.861-0.056-5.885-0.079-5.924,5.795
		c-0.077,11.27-0.112,22.54-0.185,33.809c-0.034,5.298-0.084,10.596-0.187,15.894c-0.066,3.51-0.464,3.938-3.951,3.92
		c-20.463-0.107-40.926-0.296-61.389-0.347c-3.261-0.008-3.428-1.949-3.408-4.288c0.124-13.924,0.251-27.847,0.372-41.771
		c0.026-3.032,0.034-6.064,0.047-9.097c0.018-4.108-0.039-4.222-4.022-4.247c-10.707-0.065-21.413-0.104-32.12-0.106
		c-13.169-0.003-26.339,0.001-39.508,0.101c-2.443,0.018-3.405-0.851-3.379-3.308c0.094-8.524,0.141-17.052,0.042-25.578
		c-0.032-2.757,0.809-3.873,3.728-3.875c26.242-0.024,52.484-0.135,78.726-0.286c10.513-0.06,21.023,0.39,31.535,0.24
		C152.704,37.056,152.708,36.606,152.71,36.832z"/>
	<path fill-rule="evenodd" clip-rule="evenodd" fill="#171717" d="M131.125,182.396c16.66,0.158,33.32,0.301,49.98,0.484
		c3.896,0.043,4.183,0.377,4.164,4.277c-0.052,12.117-0.118,24.236-0.188,36.354c-0.023,4.127-0.565,4.996-4.607,5.059
		c-11.828,0.182-23.659,0.15-35.49,0.152c-7.856,0-15.713-0.117-23.57-0.127c-4.614-0.006-5.04-0.65-4.824-5.34
		c0.247-5.387,0.072-10.789,0.113-16.184c0.052-6.816,0.107-13.635,0.223-20.449c0.059-3.451,0.766-4.08,4.254-4.137
		c3.314-0.053,6.628-0.096,9.942-0.145C131.123,182.359,131.123,182.378,131.125,182.396z"/>
</g>
<path fill="#BF1111" d="M256.003,19.902c8.372,0,16.117,2.728,21.81,7.68c2.841,2.471,7.605,7.747,7.605,15.323v179.808
	c0,7.574-4.765,12.852-7.605,15.322c-5.692,4.951-13.438,7.68-21.81,7.68H49.318c-8.372,0-16.118-2.729-21.811-7.68
	c-2.84-2.471-7.605-7.748-7.605-15.322V42.905c0-7.576,4.765-12.852,7.605-15.323c5.693-4.952,13.438-7.68,21.811-7.68H256.003
	 M256.003,0H49.318C22.08,0,0,19.209,0,42.905v179.808c0,23.695,22.08,42.904,49.318,42.904h206.686
	c27.237,0,49.317-19.209,49.317-42.904V42.905C305.321,19.209,283.241,0,256.003,0L256.003,0z"/>
</svg>
