<?xml version="1.0" encoding="utf-8"?>
<!-- Generator: Adobe Illustrator 23.0.1, SVG Export Plug-In . SVG Version: 6.00 Build 0)  -->
<svg version="1.1" id="Layer_1" xmlns="http://www.w3.org/2000/svg" xmlns:xlink="http://www.w3.org/1999/xlink" x="0px" y="0px"
	 viewBox="0 0 1841.8 423.7" style="enable-background:new 0 0 1841.8 423.7;" xml:space="preserve">
<style type="text/css">
	.st0{fill:#BF1111;}
	.st1{fill:#FFFFFF;}
</style>
<g>
	<g>
		<path class="st0" d="M545.6,212.5l30.9-140.8H607l-13.1,59.8l68.5-59.8h40.8L636.7,127l48.8,85.6H651l-36.6-67l-28.8,23.9
			l-9.5,43.1L545.6,212.5L545.6,212.5z"/>
		<path class="st0" d="M699.2,220.5h-53L612,157.8l-19.2,15.9l-10.3,46.7h-47l34.4-156.8h46.9l-10.1,45.8l52.4-45.8H725l-78,65.2
			L699.2,220.5z M655.8,204.5h15.9l-45.3-79.4L681,79.8h-15.6l-84.5,73.8l16.2-73.8H583l-27.4,124.8h14.2l8.7-39.5l38.4-31.9
			L655.8,204.5z"/>
	</g>
	<g>
		<path class="st0" d="M716.2,157.3c0-8.3,1.3-17.1,3.9-26.3c3.4-12.4,8.7-23.1,15.7-32.2s15.9-16.3,26.6-21.6
			c10.7-5.3,22.9-7.9,36.6-7.9c18.3,0,33.1,5.4,44.4,16.2c11.3,10.8,16.9,25.2,16.9,43c0,14.9-3.7,29.2-11,43.1
			c-7.3,13.9-17.3,24.6-29.9,32.1c-12.6,7.5-26.8,11.2-42.7,11.2c-13.8,0-25.4-3-34.7-8.9c-9.4-6-16-13.3-19.9-22.1
			C718.1,175.2,716.2,166.3,716.2,157.3z M746.3,156.7c0,9.7,3.1,17.8,9.3,24.3s14.3,9.8,24.4,9.8c8.2,0,16.1-2.6,23.7-7.7
			c7.6-5.2,13.8-13,18.8-23.4c4.9-10.5,7.4-20.7,7.4-30.6c0-11.1-3.1-19.8-9.4-26.1c-6.3-6.3-14.2-9.5-23.9-9.5
			c-14.9,0-27,6.6-36.3,19.8C750.9,126.5,746.3,141,746.3,156.7z"/>
		<path class="st0" d="M776.7,223c-15.3,0-28.4-3.4-39-10.2c-10.7-6.8-18.4-15.4-22.9-25.6c-4.3-9.8-6.5-19.8-6.5-29.9
			c0-9,1.4-18.6,4.2-28.5c3.7-13.3,9.4-25,17.1-34.9c7.8-10,17.6-18,29.4-23.8c11.8-5.8,25.3-8.7,40.1-8.7
			c20.4,0,37.2,6.2,49.9,18.5c12.9,12.3,19.4,28.8,19.4,48.8c0,16.1-4,31.9-11.9,46.9c-8,15.1-19.1,27-32.9,35.2
			C809.7,218.9,793.9,223,776.7,223z M799,77.4c-12.4,0-23.5,2.4-33,7.1c-9.6,4.7-17.6,11.2-23.8,19.3c-6.4,8.2-11.2,18.1-14.3,29.4
			c-2.4,8.5-3.6,16.6-3.6,24.2c0,7.8,1.7,15.7,5.2,23.4c3.3,7.4,8.8,13.5,16.9,18.6c8,5.1,18.3,7.7,30.4,7.7
			c14.4,0,27.3-3.4,38.6-10.1c11.2-6.7,20.3-16.4,26.9-28.9c6.7-12.7,10.1-25.9,10.1-39.4c0-15.7-4.7-27.9-14.5-37.2
			C828,81.9,815.3,77.4,799,77.4z M780,198.8c-12.3,0-22.5-4.1-30.2-12.3c-7.6-8-11.5-18.1-11.5-29.8c0-17.4,5.2-33.5,15.5-48
			c10.9-15.4,25.3-23.2,42.8-23.2c11.9,0,21.8,4,29.6,11.8s11.7,18.5,11.7,31.7c0,11.1-2.8,22.5-8.2,34
			c-5.5,11.7-12.8,20.7-21.5,26.6C799.3,195.8,789.8,198.8,780,198.8z M796.5,101.5c-12.2,0-22,5.4-29.8,16.4
			c-8.4,11.9-12.5,24.6-12.5,38.8c0,7.6,2.3,13.8,7.1,18.8c4.7,4.9,10.8,7.3,18.6,7.3c6.6,0,12.9-2.1,19.2-6.3
			c6.3-4.3,11.7-11.1,16.1-20.2c4.4-9.3,6.7-18.5,6.7-27.2c0-9-2.3-15.6-7.1-20.4C810.1,103.9,804.1,101.5,796.5,101.5z"/>
	</g>
	<g>
		<path class="st0" d="M943.4,212.5h-32.5L884.3,71.8h30.4l18.8,106.5l61.3-106.5h30.2L943.4,212.5z"/>
		<path class="st0" d="M948,220.5h-43.8L874.7,63.8h46.8l16.1,91.4l52.6-91.4h48.7L948,220.5z M917.5,204.5h21.3l72.3-124.8h-11.7
			l-70,121.6L908,79.8h-14L917.5,204.5z"/>
	</g>
	<g>
		<path class="st0" d="M1100.2,181.4h-58.7l-17.8,31.1h-31.3l83.7-140.8h33.8l24,140.8H1105L1100.2,181.4z M1096.5,158l-8.6-56.7
			l-35.7,56.7H1096.5z"/>
		<path class="st0" d="M1143.5,220.5h-45.2l-4.9-31.1h-47.2l-17.8,31.1h-50l93.2-156.8h45.1L1143.5,220.5z M1112,204.5h12.6
			l-21.3-124.8h-10.5l13.1,86.2h-68.1l54.4-86.2h-11.3l-74.2,124.8h12.6l17.8-31.1h70.1L1112,204.5z M1066.6,150h20.5l-4-26.2
			L1066.6,150z"/>
	</g>
	<g>
		<path class="st0" d="M1257.1,161.8l30.7,4.4c-6,15.8-15,27.9-27,36.2c-12,8.4-26,12.5-42.1,12.5c-18.1,0-32.3-5.2-42.5-15.6
			c-10.2-10.4-15.3-25.4-15.3-45.1c0-16,3.4-30.6,10.3-43.9c6.8-13.3,16.3-23.4,28.4-30.5c12.1-7,25.3-10.6,39.6-10.6
			c16,0,29,4.1,38.9,12.2c9.9,8.2,15.7,19.3,17.5,33.4l-29.2,2.7c-1.6-8.2-4.7-14.1-9.3-17.8c-4.6-3.7-10.8-5.5-18.4-5.5
			c-8.4,0-16.3,2.4-23.6,7.3c-7.3,4.9-13.1,12.5-17.5,22.8s-6.6,20.7-6.6,31c0,11.3,2.8,20,8.5,26.1s12.8,9.2,21.3,9.2
			c7.9,0,15.1-2.4,21.7-7.3C1249,178.6,1253.9,171.4,1257.1,161.8z"/>
		<path class="st0" d="M1218.7,223c-20.3,0-36.5-6-48.2-17.9s-17.6-28.9-17.6-50.7c0-17.2,3.7-33.2,11.1-47.6
			c7.5-14.6,18.1-26,31.5-33.7c13.3-7.7,28-11.6,43.6-11.6c17.9,0,32.6,4.7,44,14.1c11.5,9.5,18.3,22.4,20.3,38.6l1,8.2l-44.6,4.1
			l-1.4-7.1c-1.2-6.2-3.4-10.7-6.5-13.1c-3.1-2.5-7.7-3.8-13.4-3.8c-6.9,0-13.1,1.9-19.1,6c-5.9,4-10.9,10.4-14.6,19.3
			c-3.9,9.3-5.9,18.7-5.9,27.8s2.2,16.1,6.4,20.7c4.2,4.5,9.1,6.7,15.4,6.7c6.2,0,11.7-1.9,16.9-5.7c5.2-3.9,9.2-9.8,11.9-17.7
			l2.1-6.3l47.2,6.8l-3.5,9.3c-6.5,17.3-16.6,30.7-29.9,40C1252.1,218.3,1236.4,223,1218.7,223z M1239.2,77.4
			c-12.8,0-24.7,3.2-35.6,9.5s-19.2,15.2-25.3,27.2c-6.2,12.1-9.4,25.6-9.4,40.3c0,17.5,4.4,30.7,13,39.5
			c8.7,8.9,20.7,13.2,36.8,13.2c14.5,0,26.8-3.6,37.5-11.1c8.2-5.7,14.8-13.5,19.9-23.3l-14-2c-3.7,8.1-8.7,14.5-15,19.2
			c-7.9,5.9-16.8,8.9-26.4,8.9c-10.8,0-19.9-4-27.1-11.8c-7.1-7.6-10.7-18.3-10.7-31.6c0-11.3,2.4-22.8,7.2-34.1
			c5-11.8,11.9-20.6,20.5-26.3s18-8.6,28-8.6c9.5,0,17.4,2.4,23.4,7.3c4.6,3.7,8.1,8.9,10.3,15.5l13.6-1.3c-2.3-8.2-6.6-14.8-13-20
			C1264.6,80.9,1253.3,77.4,1239.2,77.4z"/>
	</g>
	<g>
		<polygon class="st0" points="1241.5,33.4 1259.2,16.3 1283.1,16.3 1253.1,45.3 1226,45.3 1213.7,16.3 1233.7,16.3 		"/>
		<path class="st0" d="M1256.3,53.3h-35.6l-19.1-44.9h37.3l5.2,11.5L1256,8.3h46.9L1256.3,53.3z M1249,37.3h0.8l13.4-12.9h-0.8
			L1249,37.3z M1231.3,37.3h3.1l-5.9-12.9h-2.7L1231.3,37.3z"/>
	</g>
	<g>
		<path class="st0" d="M1310.5,212.5l30.9-140.8h109.8l-5.2,23.5h-79.3l-7.1,32h76.6l-5.2,23.5h-76.6l-9.3,38.2h86.1l-5.3,23.5
			h-115.4V212.5z"/>
		<path class="st0" d="M1432.6,220.5h-132L1335,63.8h126.1l-8.7,39.5h-79.3l-3.5,16h76.6l-8.7,39.5h-76.8l-5.4,22.2h85.9
			L1432.6,220.5z M1320.5,204.5h99.3l1.7-7.5h-86.3l13.2-54.2h76.5l1.6-7.5h-76.7l10.6-48h79.3l1.6-7.5h-93.4L1320.5,204.5z"/>
	</g>
	<g>
		<path class="st0" d="M1533.8,212.5h-32.5l-26.6-140.8h30.4l18.8,106.5l61.3-106.5h30.2L1533.8,212.5z"/>
		<path class="st0" d="M1538.4,220.5h-43.8L1465,63.7h46.8l16.1,91.4l52.6-91.4h48.7L1538.4,220.5z M1507.9,204.5h21.3l72.3-124.8
			h-11.7l-70,121.6l-21.4-121.6h-14L1507.9,204.5z"/>
	</g>
	<g>
		<path class="st0" d="M1617.1,212.5l31-140.8h30.4l-30.9,140.8H1617.1z"/>
		<path class="st0" d="M1654,220.5h-46.9l34.5-156.8h46.8L1654,220.5z M1627,204.5h14.1l27.4-124.8h-14L1627,204.5z"/>
	</g>
	<g>
		<path class="st0" d="M1794.4,161.8l30.7,4.4c-6,15.8-15,27.9-27,36.2s-26,12.5-42.1,12.5c-18.1,0-32.3-5.2-42.5-15.6
			c-10.2-10.4-15.3-25.4-15.3-45.1c0-16,3.4-30.6,10.3-43.9c6.8-13.3,16.3-23.4,28.4-30.5c12.1-7,25.3-10.6,39.6-10.6
			c16,0,29,4.1,38.9,12.2c9.9,8.2,15.7,19.3,17.5,33.4l-29.2,2.7c-1.6-8.2-4.7-14.1-9.3-17.8c-4.6-3.7-10.8-5.5-18.4-5.5
			c-8.4,0-16.3,2.4-23.6,7.3c-7.3,4.9-13.1,12.5-17.5,22.8s-6.6,20.7-6.6,31c0,11.3,2.8,20,8.5,26.1s12.8,9.2,21.3,9.2
			c7.9,0,15.1-2.4,21.7-7.3C1786.3,178.6,1791.2,171.4,1794.4,161.8z"/>
		<path class="st0" d="M1756,223c-20.3,0-36.5-6-48.2-17.9s-17.6-28.9-17.6-50.7c0-17.2,3.7-33.2,11.1-47.6
			c7.5-14.6,18.1-26,31.5-33.7c13.3-7.7,28-11.6,43.6-11.6c17.9,0,32.6,4.7,44,14.1c11.5,9.5,18.3,22.4,20.3,38.6l1,8.2l-44.6,4.1
			l-1.4-7.1c-1.2-6.2-3.4-10.7-6.5-13.1c-3.1-2.5-7.7-3.8-13.4-3.8c-6.9,0-13.1,1.9-19.1,6c-5.9,4-10.9,10.4-14.6,19.3
			c-3.9,9.3-5.9,18.7-5.9,27.8s2.2,16.1,6.4,20.7c4.2,4.5,9.1,6.7,15.4,6.7c6.2,0,11.7-1.9,16.9-5.7c5.2-3.9,9.2-9.8,11.9-17.7
			l2.1-6.3l47.2,6.8l-3.5,9.3c-6.5,17.3-16.6,30.7-29.9,40C1789.4,218.3,1773.7,223,1756,223z M1776.5,77.4
			c-12.8,0-24.7,3.2-35.6,9.5c-10.7,6.2-19.2,15.4-25.3,27.2c-6.2,12.1-9.4,25.6-9.4,40.3c0,17.5,4.4,30.7,13,39.5
			c8.7,8.9,20.7,13.2,36.8,13.2c14.5,0,26.8-3.6,37.5-11.1c8.2-5.7,14.8-13.5,19.9-23.3l-14-2c-3.7,8.1-8.7,14.5-15,19.2
			c-7.9,5.9-16.8,8.9-26.4,8.9c-10.8,0-19.9-4-27.1-11.8c-7.1-7.6-10.7-18.3-10.7-31.6c0-11.3,2.4-22.8,7.2-34.1
			c5-11.8,11.9-20.6,20.5-26.3s18-8.6,28-8.6c9.5,0,17.4,2.4,23.4,7.3c4.6,3.7,8.1,8.9,10.3,15.5l13.6-1.3c-2.3-8.2-6.6-14.8-13-20
			C1801.9,80.9,1790.6,77.4,1776.5,77.4z"/>
	</g>
	<g>
		<polygon class="st0" points="1782.2,16.4 1813.1,16.4 1780.4,45.3 1761.1,45.3 		"/>
		<path class="st0" d="M1783.4,53.3h-38.1l32.8-44.8h56.2L1783.4,53.3z M1776.9,37.3h0.5l14.5-12.8h-5.7L1776.9,37.3z"/>
	</g>
</g>
<g>
	<g>
		<path class="st1" d="M532.4,323.2l3.7-16.5h11.8l3-13.1l27.8-15.3l-6.5,28.5H587l-3.7,16.5h-14.9l-7.9,34.4
			c-1.4,6.2-2.1,9.8-2.1,10.7c0,1.7,0.6,3,1.8,4s3.3,1.4,6.4,1.4c1.1,0,3.7-0.2,8-0.5l-3.8,16.5c-4.2,0.8-8.4,1.2-12.8,1.2
			c-8.6,0-14.8-1.5-18.7-4.5s-5.8-7.2-5.8-12.6c0-2.5,1-8.4,3.1-17.5l7.5-33L532.4,323.2L532.4,323.2z"/>
		<path class="st1" d="M558,394.3c-9.4,0-16.3-1.7-20.8-5.3c-4.8-3.7-7.2-8.9-7.2-15.3c0-1.8,0.3-5.6,3.2-18.3l6.5-28.7H528
			l5.3-23.5h11.8l2.7-12l36-19.8l-7.3,31.8h14.8l-5.3,23.5h-14.9l-7.2,31.7c-1.8,8-2,9.6-2,10c0,0.8,0.3,1,0.5,1.2
			c0,0,0.9,0.7,4.2,0.7c0.7,0,2.5-0.1,7.7-0.5l4.8-0.4l-5.4,23.4l-2.3,0.4C567.1,393.9,562.5,394.3,558,394.3z M536.8,319.7h11.7
			L540,357c-2.5,11-3,15.1-3,16.7c0,4.3,1.5,7.5,4.5,9.8c3.2,2.5,8.8,3.8,16.5,3.8c3.4,0,6.7-0.2,10-0.7l2.2-9.5
			c-2.2,0.2-3,0.2-3.5,0.2c-4,0-6.8-0.7-8.6-2.2c-2-1.6-3.1-3.9-3.1-6.7c0-0.8,0.2-2.5,2.2-11.4l8.5-37.1h14.9l2.1-9.5h-14.8
			l5.7-25.1L554,296.1l-3.2,14.3H539L536.8,319.7z"/>
	</g>
	<g>
		<path class="st1" d="M609.9,306.7h22.6l-3.6,15.9c8.4-11.9,17.6-17.9,27.4-17.9c3.5,0,7.2,0.8,11.2,2.4l-9.3,18.2
			c-2.2-0.7-4.5-1.1-7-1.1c-4.2,0-8.4,1.4-12.7,4.3s-7.7,6.7-10.1,11.6c-2.4,4.8-4.8,12.5-7.2,22.9l-5.9,25.7h-24.2L609.9,306.7z"/>
		<path class="st1" d="M618.2,392.4h-31.4l20.3-89.1h29.8l-1.6,6.8c6.6-5.8,13.6-8.7,21-8.7c3.9,0,8.1,0.9,12.5,2.6l3.6,1.4
			L660,329.7l-2.8-0.9c-1.8-0.6-3.8-0.9-5.9-0.9c-3.4,0-7.1,1.3-10.8,3.7c-3.8,2.5-6.8,6-8.9,10.2c-2.3,4.5-4.6,12-6.9,22.1
			L618.2,392.4z M595.6,385.4h17.1l5.3-23c2.4-10.8,4.9-18.6,7.5-23.7c2.7-5.3,6.5-9.7,11.3-12.9c4.9-3.3,9.8-4.9,14.7-4.9
			c1.8,0,3.5,0.2,5.2,0.5l6.2-12.1c-2.2-0.6-4.3-0.9-6.3-0.9c-8.6,0-16.9,5.5-24.6,16.4L621.6,339l6.6-28.8h-15.5L595.6,385.4z"/>
	</g>
	<g>
		<path class="st1" d="M702.7,330l-23.6-1.9c2.7-7.3,7.4-13,14.1-17.2c6.7-4.1,15.6-6.2,26.7-6.2c11.5,0,20.1,2.1,25.6,6.4
			s8.3,9.4,8.3,15.6c0,2.5-0.2,5.1-0.7,7.9s-2.2,10.1-5,22c-2.4,9.8-3.5,16.7-3.5,20.6c0,3.5,0.7,7.4,2,11.7H723
			c-1-3-1.5-6.1-1.8-9.3c-3.5,3.6-7.6,6.4-12.2,8.3c-4.6,1.9-9.3,2.9-13.9,2.9c-7.4,0-13.6-2.2-18.4-6.7c-4.8-4.5-7.3-10.2-7.3-17.2
			c0-7.8,2.7-14.1,8-18.8c5.3-4.7,14.8-7.5,28.5-8.5c11.5-0.9,19.3-1.9,23.1-3.2c1-3.1,1.5-5.6,1.5-7.4c0-2.4-1-4.4-3.1-6
			s-5.2-2.4-9.3-2.4c-4.3,0-7.8,0.8-10.3,2.4C705.3,324.7,703.6,327,702.7,330z M725.7,350.6c-1.5,0.4-3.4,0.7-5.8,1
			c-12.2,1.3-20.1,3.3-23.8,5.9c-2.6,1.9-4,4.4-4,7.5c0,2.6,1,4.8,3,6.5c2,1.8,4.7,2.7,8,2.7c3.7,0,7.1-0.8,10.3-2.4
			s5.7-3.7,7.3-6.3s3-6.5,4.3-11.9L725.7,350.6z"/>
		<path class="st1" d="M695,394.3c-8.3,0-15.3-2.6-20.8-7.6c-5.6-5.1-8.4-11.8-8.4-19.8c0-8.8,3.1-16.1,9.2-21.4
			c6-5.3,16-8.3,30.6-9.4c9.7-0.7,16.6-1.6,20.6-2.5c0.7-2.3,0.8-3.7,0.8-4.6s-0.2-2-1.8-3.2c-1.4-1.1-3.9-1.7-7.2-1.7
			c-3.6,0-6.4,0.6-8.4,1.9c-1.8,1.2-3,2.8-3.7,5l-0.8,2.7l-31.1-2.4l1.6-4.3c3-8,8.2-14.4,15.6-18.9c7.3-4.4,16.9-6.7,28.6-6.7
			c12.4,0,21.5,2.3,27.7,7.1c6.4,4.9,9.6,11.1,9.6,18.4c0,2.7-0.3,5.5-0.8,8.5c-0.5,2.9-2.2,10.2-5.1,22.2
			c-2.3,9.5-3.4,16.1-3.4,19.7c0,3.1,0.6,6.7,1.9,10.6l1.4,4.6h-30.9l-0.8-2.4c-0.4-1.2-0.7-2.3-1-3.5c-2.6,1.9-5.4,3.5-8.4,4.7
			C705.3,393.2,700.1,394.3,695,394.3z M718.1,317.2c4.9,0,8.7,1,11.4,3.1c2.9,2.3,4.5,5.3,4.5,8.7c0,2.3-0.6,5-1.7,8.5l-0.6,1.7
			l-1.7,0.5c-4.2,1.3-12,2.4-23.9,3.3c-12.8,0.9-21.7,3.5-26.5,7.6c-4.6,4-6.8,9.3-6.8,16.2c0,6,2,10.8,6.1,14.6
			c4.2,3.9,9.5,5.8,16,5.8c4.2,0,8.4-0.9,12.6-2.6c4.2-1.7,7.9-4.3,11.1-7.5l5.4-5.5l0.5,7.7c0.1,2,0.5,4.1,0.9,6h16.3
			c-0.6-2.9-1-5.6-1-8.2c0-4.2,1.2-11.2,3.6-21.4c2.8-11.7,4.5-19,5-21.7c0.4-2.6,0.7-5,0.7-7.3c0-5-2.3-9.2-6.9-12.8
			c-4.9-3.8-12.8-5.7-23.5-5.7c-10.4,0-18.8,1.9-24.9,5.7c-4.7,2.9-8.2,6.5-10.7,11.1l16.1,1.3c1.3-2.5,3.1-4.6,5.5-6.2
			C709,318.2,713,317.2,718.1,317.2z M703.2,377.7c-4.2,0-7.7-1.2-10.3-3.5c-2.8-2.4-4.2-5.6-4.2-9.2c0-4.3,1.9-7.9,5.5-10.4
			c4.3-3,12.6-5.1,25.4-6.5c2.2-0.3,4-0.6,5.4-0.9l5.5-1.4l-2,8.5c-1.3,5.9-2.9,10.1-4.7,13c-1.9,3.1-4.9,5.6-8.7,7.5
			C711.4,376.7,707.4,377.7,703.2,377.7z M721.1,355c-0.2,0-0.5,0.1-0.8,0.1c-14.4,1.6-20.1,3.7-22.3,5.3c-1.7,1.2-2.5,2.6-2.5,4.6
			c0,1.6,0.6,2.8,1.8,3.9c1.4,1.2,3.2,1.8,5.7,1.8c3.1,0,6-0.7,8.8-2.1c2.6-1.3,4.6-3,5.9-5C719,361.7,720.1,358.8,721.1,355z"/>
	</g>
	<g>
		<path class="st1" d="M782.4,306.7h23l-2.4,10.7c5.7-4.5,11.1-7.8,16.1-9.7s10.2-2.9,15.7-2.9c7.4,0,13.2,1.9,17.4,5.8
			c4.3,3.9,6.4,9,6.4,15.4c0,2.9-0.9,8.4-2.8,16.4l-10.6,46.5H821l10.6-46.6c1.6-7,2.4-11.1,2.4-12.4c0-2.8-0.9-5.1-2.7-6.7
			s-4.4-2.4-7.6-2.4c-3.5,0-7.5,1.4-11.8,4.1s-7.7,6.3-10.2,10.8c-1.8,3.2-3.8,9.7-6.1,19.6l-7.7,33.7h-24.2L782.4,306.7z"/>
		<path class="st1" d="M848.1,392.4h-31.4l11.6-50.9c2.1-9.3,2.3-11.3,2.3-11.7c0-2.4-0.9-3.5-1.6-4.1c-1.2-1-3-1.6-5.3-1.6
			c-2.9,0-6.2,1.2-10,3.6s-6.8,5.6-9,9.6c-1.1,2-3,6.9-5.7,18.7l-8.3,36.4h-31.4l20.3-89.1h30.1l-1.3,6.1c3.3-2.1,6.4-3.7,9.4-4.8
			c5.4-2.1,11.1-3.1,17-3.1c8.2,0,14.9,2.3,19.8,6.7c5,4.5,7.5,10.6,7.5,18c0,3.2-0.9,8.8-2.9,17.2L848.1,392.4z M825.5,385.4h17.1
			l9.9-43.7c2.2-9.7,2.7-13.8,2.7-15.6c0-5.4-1.7-9.6-5.2-12.8c-3.6-3.3-8.5-4.9-15.1-4.9c-5.1,0-9.9,0.9-14.5,2.7
			c-4.6,1.8-9.7,4.9-15.2,9.2l-7.7,6.1l3.5-16h-15.8l-17.2,75h17.1l7.1-31c2.3-10.3,4.5-17,6.4-20.5c2.7-5,6.6-9,11.4-12.1
			c4.9-3.1,9.5-4.6,13.7-4.6c4.1,0,7.5,1.1,10,3.3c2.6,2.3,3.9,5.5,3.9,9.3c0,1.2-0.3,3.7-2.5,13.2L825.5,385.4z"/>
	</g>
	<g>
		<path class="st1" d="M873.5,365.9l23.5-3.4c2.1,4.5,4.7,7.7,7.8,9.6s7.3,2.8,12.7,2.8c5.5,0,9.9-1.1,13.3-3.4
			c2.3-1.5,3.5-3.4,3.5-5.6c0-1.5-0.6-2.8-1.8-4c-1.2-1.1-4.6-2.5-10-4.2c-14.6-4.4-23.7-7.9-27.2-10.5c-5.5-4-8.2-9.3-8.2-15.8
			s2.6-12.1,7.9-16.8c7.4-6.5,18.3-9.8,32.8-9.8c11.5,0,20.3,1.9,26.2,5.8s9.7,9.1,11.2,15.7l-22.4,3.6c-1.2-3-3.1-5.2-5.7-6.7
			c-3.6-2-7.9-3-13-3s-8.7,0.8-10.9,2.3s-3.3,3.3-3.3,5.3c0,2.1,1.1,3.8,3.4,5.1c1.4,0.8,5.9,2.3,13.6,4.3
			c11.8,3.1,19.7,6.2,23.7,9.3c5.6,4.3,8.4,9.4,8.4,15.5c0,7.8-3.6,14.5-10.7,20.3c-7.2,5.7-17.2,8.6-30.2,8.6
			c-12.9,0-23-2.2-30-6.5C880.8,379.9,876,373.8,873.5,365.9z"/>
		<path class="st1" d="M917.9,394.3c-13.5,0-24.3-2.4-31.9-7.1c-7.8-4.8-13.1-11.6-15.9-20.3l-1.3-3.9l30.2-4.4l1.1,2.4
			c1.8,3.9,3.9,6.6,6.4,8.1s6.2,2.3,10.8,2.3c4.8,0,8.6-0.9,11.3-2.8c1.9-1.3,1.9-2.3,1.9-2.8c0-0.4-0.1-0.8-0.7-1.5
			c-0.3-0.2-1.9-1.3-8.7-3.4c-20.2-6.1-25.8-9.2-28.3-11.1c-6.4-4.7-9.6-10.9-9.6-18.6c0-7.5,3.1-14,9.1-19.4
			c8-7.1,19.8-10.7,35.2-10.7c12.4,0,21.5,2.1,28.1,6.4c6.7,4.4,10.9,10.3,12.7,17.8l0.9,3.7l-28.9,4.6l-1-2.6
			c-0.9-2.2-2.3-3.9-4.2-5c-3-1.7-6.8-2.6-11.3-2.6c-5.4,0-7.8,0.9-8.9,1.7c-1.8,1.3-1.8,2.2-1.8,2.5s0,1.1,1.7,2.1
			c0.4,0.2,2.5,1.2,12.7,4c12.4,3.3,20.5,6.5,24.9,9.9c6.5,5,9.8,11.1,9.8,18.3c0,8.9-4,16.6-12,23
			C942.6,391.1,931.6,394.3,917.9,394.3z M878.3,368.7c2.5,5.2,6.2,9.4,11.4,12.6c6.5,4,16,6,28.2,6c12.1,0,21.6-2.6,28-7.8
			c6.3-5.1,9.4-10.8,9.4-17.5c0-4.9-2.3-9.1-7.1-12.7c-2.5-1.9-8.4-4.9-22.5-8.7c-10.6-2.9-13.3-4-14.5-4.7
			c-4.2-2.5-5.1-5.8-5.1-8.1c0-2.2,0.8-5.4,4.8-8.2c2.8-2,7.1-2.9,12.9-2.9c5.6,0,10.6,1.2,14.7,3.5c2.5,1.4,4.6,3.4,6,5.9l15.8-2.5
			c-1.7-4-4.5-7.3-8.6-10c-5.3-3.5-13.5-5.2-24.3-5.2c-13.6,0-23.8,3-30.5,8.9c-4.5,4-6.8,8.7-6.8,14.2c0,5.4,2.2,9.6,6.8,13
			c2.2,1.6,8.5,4.6,26.1,10c7.9,2.4,10.3,3.9,11.4,4.9l0.1,0.1c1.8,1.8,2.8,4.1,2.8,6.5s-0.9,5.8-5,8.6c-3.9,2.6-9,4-15.2,4
			c-6,0-10.8-1.1-14.5-3.3c-3.1-1.9-5.8-4.8-7.9-8.8L878.3,368.7z"/>
	</g>
	<g>
		<path class="st1" d="M995.4,306.7h23l-1.9,8.4c4.9-3.7,9.5-6.4,13.8-8s8.9-2.4,13.8-2.4c9.4,0,17,3,22.7,8.9s8.6,14.8,8.6,26.5
			c0,14.8-4.9,27.3-14.8,37.5c-8.4,8.7-18.4,13.1-30,13.1c-11.9,0-20.9-4.4-26.9-13.2l-9.7,42.6h-24.2L995.4,306.7z M1010,353.8
			c0,6.4,1.7,11.4,5.1,14.9c3.4,3.5,7.4,5.3,12,5.3c4,0,7.9-1.3,11.6-4s6.8-7.1,9.2-13.2c2.4-6.2,3.7-11.9,3.7-17.1
			c0-6.1-1.6-10.8-4.8-14.1c-3.2-3.3-7.3-4.9-12.2-4.9c-4.6,0-8.8,1.5-12.6,4.5c-3.8,3-6.7,7.5-8.8,13.3
			C1011.1,344.3,1010,349.4,1010,353.8z"/>
		<path class="st1" d="M996.6,423.7h-31.4l27.4-120.4h30.2l-0.9,4.1c2.5-1.4,4.8-2.6,7.1-3.4c4.7-1.7,9.7-2.6,15-2.6
			c10.3,0,18.8,3.4,25.2,10c6.3,6.6,9.6,16.3,9.6,29c0,15.7-5.3,29.1-15.8,39.9c-9.1,9.4-20,14.1-32.5,14.1
			c-10.3,0-18.7-3.1-25.1-9.2L996.6,423.7z M974,416.7h17l10.9-47.6l4.5,6.6c5.4,7.9,13.3,11.7,24.1,11.7c10.7,0,19.6-3.9,27.5-12
			c9.3-9.6,13.8-21.1,13.8-35.1c0-10.8-2.6-18.9-7.6-24.1c-5.1-5.3-11.7-7.8-20.2-7.8c-4.5,0-8.7,0.7-12.5,2.2
			c-3.9,1.5-8.3,4-12.9,7.5l-7.7,5.8l3.1-13.5h-15.8L974,416.7z M1027.2,377.5c-5.6,0-10.5-2.1-14.6-6.4c-4-4.2-6.1-10-6.1-17.3
			c0-4.8,1.1-10.3,3.3-16.5c2.3-6.4,5.6-11.5,9.9-14.9c4.4-3.5,9.4-5.3,14.8-5.3c5.9,0,10.9,2,14.7,6c3.9,3.9,5.8,9.5,5.8,16.6
			c0,5.7-1.3,11.9-3.9,18.4c-2.7,6.8-6.2,11.7-10.5,14.8C1036.5,376,1031.9,377.5,1027.2,377.5z M1034.6,324.2
			c-3.8,0-7.3,1.2-10.4,3.8c-3.3,2.6-5.9,6.5-7.7,11.7c-1.9,5.4-2.9,10.2-2.9,14.2c0,5.5,1.3,9.6,4.1,12.5c2.7,2.8,5.9,4.2,9.5,4.2
			c3.3,0,6.4-1.1,9.5-3.3c3.1-2.2,5.8-6.2,8-11.7c2.3-5.7,3.4-11,3.4-15.8c0-5.2-1.2-9-3.8-11.7
			C1041.8,325.4,1038.6,324.2,1034.6,324.2z"/>
	</g>
	<g>
		<path class="st1" d="M1090.3,354.8c0-15.2,4.7-27.3,14.1-36.4c9.4-9,21.7-13.6,36.9-13.6c13.2,0,23.6,3.3,31,10
			s11.1,15.7,11.1,26.9c0,13.3-4.6,24.8-13.9,34.5s-21.7,14.5-37.3,14.5c-8.4,0-15.9-1.5-22.5-4.6c-6.5-3.1-11.4-7.5-14.6-13.1
			C1091.9,367.3,1090.3,361.3,1090.3,354.8z M1159.3,338.9c0-5.3-1.7-9.5-5-12.6c-3.3-3.2-7.7-4.8-13-4.8c-5.2,0-9.9,1.5-13.9,4.4
			c-4.1,3-7.2,7.3-9.5,12.9s-3.4,10.8-3.4,15.6c0,5.9,1.7,10.5,5.2,14s7.9,5.2,13.2,5.2c6.6,0,12.2-2.6,16.7-7.8
			C1156.1,358.4,1159.3,349.5,1159.3,338.9z"/>
		<path class="st1" d="M1132.1,394.3c-8.9,0-17-1.7-24-5c-7.2-3.4-12.6-8.3-16.2-14.6c-3.5-6.2-5.3-12.9-5.3-20
			c0-16.1,5.1-29.2,15.1-38.9c10-9.7,23.3-14.6,39.4-14.6c14.1,0,25.3,3.7,33.3,10.9c8.2,7.3,12.3,17.3,12.3,29.5
			c0,14.2-5,26.6-14.9,36.9C1162.1,389,1148.7,394.3,1132.1,394.3z M1141.3,308.3c-14.2,0-25.9,4.2-34.5,12.6
			c-8.7,8.4-13,19.5-13,33.9c0,5.9,1.5,11.4,4.4,16.5s7.1,8.9,13.1,11.7c6,2.9,13.1,4.3,21,4.3c14.7,0,26.1-4.4,34.8-13.5
			c8.7-9.1,13-19.6,13-32.1c0-10.3-3.3-18.3-10-24.3C1163.2,311.4,1153.5,308.3,1141.3,308.3z M1133,377.1c-6.2,0-11.5-2.1-15.6-6.2
			c-4.2-4.1-6.3-9.7-6.3-16.5c0-5.2,1.2-10.8,3.6-16.9c2.5-6.2,6.1-11.1,10.6-14.4c4.6-3.4,10-5.1,16-5.1c6.2,0,11.4,1.9,15.4,5.7
			c4.1,3.8,6.1,9,6.1,15.2c0,11.4-3.5,21.2-10.5,29.2C1147.2,374.1,1140.7,377.1,1133,377.1z M1141.3,325c-4.5,0-8.4,1.2-11.9,3.8
			c-3.5,2.6-6.3,6.4-8.3,11.4c-2.1,5.2-3.1,10-3.1,14.3c0,5,1.4,8.7,4.2,11.5c2.8,2.8,6.3,4.2,10.7,4.2c5.6,0,10.2-2.2,14.1-6.6
			c5.9-6.8,8.8-14.8,8.8-24.6c0-4.3-1.3-7.6-3.9-10.1C1149.2,326.3,1145.8,325,1141.3,325z"/>
	</g>
	<g>
		<path class="st1" d="M1208.4,306.7h22.6l-3.6,15.9c8.4-11.9,17.6-17.9,27.4-17.9c3.5,0,7.2,0.8,11.2,2.4l-9.3,18.2
			c-2.2-0.7-4.5-1.1-7-1.1c-4.2,0-8.4,1.4-12.7,4.3c-4.3,2.9-7.7,6.7-10.1,11.6c-2.4,4.8-4.8,12.5-7.2,22.9l-5.9,25.7h-24.2
			L1208.4,306.7z"/>
		<path class="st1" d="M1216.7,392.4h-31.4l20.3-89.1h29.8l-1.6,6.8c6.6-5.8,13.6-8.7,21-8.7c3.9,0,8.1,0.9,12.5,2.6l3.6,1.4
			l-12.4,24.3l-2.8-0.9c-1.8-0.6-3.8-0.9-5.9-0.9c-3.4,0-7.1,1.3-10.8,3.7c-3.8,2.5-6.8,6-8.9,10.2c-2.3,4.5-4.6,12-6.9,22.1
			L1216.7,392.4z M1194,385.4h17.1l5.3-23c2.4-10.8,4.9-18.6,7.5-23.7c2.7-5.3,6.5-9.7,11.3-12.9c4.9-3.3,9.8-4.9,14.7-4.9
			c1.8,0,3.5,0.2,5.2,0.5l6.2-12.1c-2.2-0.6-4.3-0.9-6.3-0.9c-8.6,0-16.9,5.5-24.6,16.4l-10.2,14.4l6.6-28.8h-15.5L1194,385.4z"/>
	</g>
	<g>
		<path class="st1" d="M1278,323.2l3.7-16.5h11.8l3-13.1l27.8-15.3l-6.5,28.5h14.8l-3.7,16.5H1314l-7.9,34.4
			c-1.4,6.2-2.1,9.8-2.1,10.7c0,1.7,0.6,3,1.8,4c1.2,1,3.3,1.4,6.4,1.4c1.1,0,3.7-0.2,8-0.5l-3.8,16.5c-4.2,0.8-8.4,1.2-12.8,1.2
			c-8.6,0-14.8-1.5-18.7-4.5s-5.8-7.2-5.8-12.6c0-2.5,1-8.4,3.1-17.5l7.5-33L1278,323.2L1278,323.2z"/>
		<path class="st1" d="M1303.6,394.3c-9.4,0-16.3-1.7-20.8-5.3c-4.8-3.7-7.2-8.9-7.2-15.3c0-1.8,0.3-5.6,3.2-18.3l6.5-28.7h-11.7
			l5.3-23.5h11.8l2.7-12l36-19.8l-7.3,31.8h14.8l-5.3,23.5h-14.9l-7.2,31.7c-1.8,8-2,9.6-2,10c0,0.8,0.3,1,0.5,1.2
			c0,0,0.9,0.7,4.2,0.7c0.7,0,2.5-0.1,7.7-0.5l4.8-0.4l-5.4,23.4l-2.3,0.4C1312.7,393.9,1308.2,394.3,1303.6,394.3z M1282.4,319.7
			h11.7l-8.5,37.3c-2.5,11-3,15.1-3,16.7c0,4.3,1.5,7.5,4.5,9.8c3.2,2.5,8.8,3.8,16.5,3.8c3.4,0,6.7-0.2,10-0.7l2.2-9.5
			c-2.2,0.2-3,0.2-3.5,0.2c-4,0-6.8-0.7-8.6-2.2c-2-1.6-3.1-3.9-3.1-6.7c0-0.8,0.2-2.5,2.2-11.4l8.5-37.1h14.9l2.1-9.5h-14.8
			l5.7-25.1l-19.6,10.8l-3.2,14.3h-11.8L1282.4,319.7z"/>
	</g>
</g>
<g>
	<path class="st0" d="M336,235c1.8,0.7,3.5,1.6,5.3,2.2c21.5,7.3,39.3,19.5,50.8,39.5c9.2,16,13.4,33.5,12.9,52
		c-0.1,3.9-0.3,7.7-0.6,11.6c-0.4,5.1-2.1,6.6-7.5,6.5c-9.6-0.1-19.2-0.2-28.8-0.1c-14.9,0-29.9,0.2-44.8,0.3
		c-4.4,0-8.9-0.4-13.3-0.4c-3.8,0-5.5-1.7-5.3-5.5c0.6-10.5,1.4-20.9,1.5-31.4c0.1-10,0.1-20.1-0.9-30.1
		c-1.1-11.6-10.2-18.9-22.3-18.9c-31.3-0.2-62.6-0.3-93.9-0.5c-5,0-10-0.3-15.1-0.3c-5.2,0-5.9,0.7-6.2,6c-0.2,3.4-0.1,6.9-0.1,10.3
		c0.2,20.5,0.5,41.9,0.7,62.4c0.1,7.9-0.3,8.4-8.2,8.3c-29.7-0.2-59.4-0.5-89.1-0.8c-5.5-0.1-6.2-0.8-6.2-6.4
		c-0.2-51.7-0.4-104.2-0.5-155.8c0-19.4,0.2-38.8,0.2-58.1c0-4,1.1-5.7,5.3-5.7c29.7,0.1,59.4,0,89.1,0.1c8.8,0,8.9,0.1,8.9,9
		c0.1,23.8,0,47.6,0.1,71.5c0,6.9,0.3,6.7,7.1,6.8c30.7,0.1,61.4,0.4,92.1,0.6c7.3,0,14.7,0.3,21.9-0.9c10.3-1.7,16.8-8.6,17.9-18.9
		c1.5-14.8,2-29.7,2.7-44.6c0.3-6,0-12-0.1-18.1c-0.1-3.5,1.4-4.8,4.9-4.8c30.1,0.4,60.3,0.7,90.4,1c2.9,0,4.2,1.3,4.3,4.1
		c1.7,30.4-5.7,58-26.5,80.7c-11.3,12.4-25.9,20.3-41.9,25.3c-1.7,0.5-3.3,1.3-4.9,2C336,234.3,336,234.7,336,235z"/>
	<path class="st1" d="M237.3,55.8c30,0.2,60,0.4,90,0.6c25.7,0.2,51.4,0.5,77.1,0.7c4,0,5.7,1.2,5.6,5.5
		c-0.3,12.9-0.3,25.8-0.5,38.7c-0.1,5.1-0.7,5.7-5.8,5.7c-35.4-0.3-70.9-0.6-106.4-1c-8.9-0.1-8.9-0.1-9,8.8
		c-0.1,17.1-0.2,34.1-0.3,51.2c-0.1,8-0.1,16.1-0.3,24.1c-0.1,5.3-0.7,6-6,5.9c-31-0.2-62-0.4-93-0.5c-4.9,0-5.2-3-5.2-6.5
		c0.2-21.1,0.4-42.2,0.6-63.3c0-4.6,0.1-9.2,0.1-13.8c0-6.2-0.1-6.4-6.1-6.4c-16.2-0.1-32.4-0.2-48.7-0.2c-19.9,0-39.9,0-59.9,0.2
		c-3.7,0-5.2-1.3-5.1-5c0.1-12.9,0.2-25.8,0.1-38.8c0-4.2,1.2-5.9,5.6-5.9c39.8,0,79.5-0.2,119.3-0.4
		C205.4,55.3,221.4,56,237.3,55.8C237.3,56.1,237.3,55.5,237.3,55.8z"/>
	<path class="st1" d="M204.6,276.3c25.2,0.2,50.5,0.5,75.7,0.7c5.9,0.1,6.3,0.6,6.3,6.5c-0.1,18.4-0.2,36.7-0.3,55.1
		c0,6.3-0.9,7.6-7,7.7c-17.9,0.3-35.8,0.2-53.8,0.2c-11.9,0-23.8-0.2-35.7-0.2c-7,0-7.6-1-7.3-8.1c0.4-8.2,0.1-16.3,0.2-24.5
		c0.1-10.3,0.2-20.7,0.3-31c0.1-5.2,1.2-6.2,6.4-6.3C194.6,276.4,199.6,276.3,204.6,276.3L204.6,276.3z"/>
</g>
<path class="st0" d="M393.8,30.1c12.7,0,24.4,4.1,33,11.6c4.3,3.7,11.5,11.7,11.5,23.2v272.4c0,11.5-7.2,19.5-11.5,23.2
	c-8.6,7.5-20.4,11.6-33,11.6H80.7c-12.7,0-24.4-4.1-33-11.6c-4.3-3.7-11.5-11.7-11.5-23.2V65c0-11.5,7.2-19.5,11.5-23.2
	c8.6-7.5,20.4-11.6,33-11.6L393.8,30.1 M393.8,0H80.7C39.4,0,5.9,29.1,5.9,65v272.4c0,35.9,33.5,65,74.7,65h313.1
	c41.3,0,74.7-29.1,74.7-65V65C468.5,29.1,435,0,393.8,0L393.8,0z"/>
</svg>
